# xmcd CD database file
#
# Track frame offsets:
#	150
#	16057
#	25362
#	37557
#	54655
#	67275
#	87290
#	114312
#	131365
#	146055
#	160840
#	170607
#	181277
#	207355
#	220127
#	232372
#	245437
#	254957
#	272187
#	285292
#	304952
#
# Disc length: 4432 seconds
#
# Revision: 1
# Processed by: cddbd v1.5.2PL0 Copyright (c) Steve Scherf et al.
# Submitted via: CDex 1.70beta2
#
DISCID=3a114e15
DTITLE=THE SLUT BANKS - EVIL THE END
DYEAR=2000
DGENRE=Rock
TTITLE0=Pika-Bang
TTITLE1=War Economy
TTITLE2=VirtualPeople
TTITLE3=涙の最終飛行
TTITLE4=ぱらり
TTITLE5=Fire Up
TTITLE6=Please
TTITLE7=Babybuster
TTITLE8=NoisyLove
TTITLE9=Tunnel
TTITLE10=Saucy
TTITLE11=I"ll Go Around
TTITLE12=#0022
TTITLE13=デビル モンキー スパナ
TTITLE14=ならず者
TTITLE15=Toy
TTITLE16=Trust In You
TTITLE17=朝が来るまで
TTITLE18=首飾り
TTITLE19=きみ
TTITLE20=#0022 -Evils Forever-
EXTD=YEAR: 2000
EXTT0=
EXTT1=
EXTT2=
EXTT3=
EXTT4=
EXTT5=
EXTT6=
EXTT7=
EXTT8=
EXTT9=
EXTT10=
EXTT11=
EXTT12=
EXTT13=
EXTT14=
EXTT15=
EXTT16=
EXTT17=
EXTT18=
EXTT19=
EXTT20=
PLAYORDER=
